<svg xmlns="http://www.w3.org/2000/svg" viewBox="0 0 327.86 327.86"><defs><style>.cls-1{font-size:48.21px;letter-spacing:0.35em;}.cls-1,.cls-5{font-family:Montserrat-Regular, Montserrat;}.cls-2{letter-spacing:0.4em;}.cls-3{letter-spacing:0.4em;}.cls-4{letter-spacing:0.4em;}.cls-5{font-size:12.05px;letter-spacing:0.29em;}.cls-6{letter-spacing:0.3em;}.cls-7{letter-spacing:0.26em;}.cls-8{letter-spacing:0.28em;}.cls-9{letter-spacing:0.29em;}.cls-10{letter-spacing:0.3em;}.cls-11{letter-spacing:0.29em;}.cls-12{letter-spacing:0.29em;}</style></defs><title>Mesa de trabajo 2 copia 2</title><g id="TEXTS"><path d="M127.5,89.21A18.24,18.24,0,1,0,111,72.71,18.25,18.25,0,0,0,127.5,89.21Zm-.06-33.91a15.83,15.83,0,1,1-14,14A15.85,15.85,0,0,1,127.44,55.3Z"/><path d="M255.06,101.34h0A91.59,91.59,0,1,0,72.88,120.47s0,0,0,0a90.53,90.53,0,0,0,9.08,31h0a91.63,91.63,0,0,0,168.12-9.74h0a90.37,90.37,0,0,0,4.38-17.14v0c.18-1.24.38-2.65.52-4h0a90.22,90.22,0,0,0,.54-9.92A92.15,92.15,0,0,0,255.06,101.34Zm-180,16.91c-.22-2.55-.33-5.13-.33-7.68a89.19,89.19,0,0,1,177.69-11,.62.62,0,0,1-.61.69H250.6l-2.29,0h-4.7l-2.67,0-1.88,0-2.72,0-1.67,0-2.84.09-1.43,0-3,.13-1.19.05-3.12.16-1,.06c-1,0-1.9.12-2.85.18a.58.58,0,0,1-.55-.29,59.65,59.65,0,0,0-15.08-16.89.3.3,0,0,1,.2-.53c1,.1,2.08.15,3.13.15a32.14,32.14,0,0,0,17.26-5,1.22,1.22,0,0,0,.56-1,1.21,1.21,0,0,0-.56-1,32.17,32.17,0,0,0-18.63-5,.29.29,0,0,1-.21-.52c4.42-3.74,8.38-11.09,9.64-16.73a1.21,1.21,0,0,0-.32-1.12,1.19,1.19,0,0,0-1.12-.32,32.25,32.25,0,0,0-15.72,8.68,31.71,31.71,0,0,0-7.55,11.9.61.61,0,0,1-.79.35,32.28,32.28,0,0,0-29.16,2.66,1.28,1.28,0,0,0-.54.65,1.21,1.21,0,0,0,.49,1.42,32,32,0,0,0,18.67,5,.29.29,0,0,1,.21.51c-4.44,3.83-8.41,11.08-9.68,16.73a1.22,1.22,0,0,0,.32,1.12,1.21,1.21,0,0,0,1.12.32,32.27,32.27,0,0,0,22.86-19.48.3.3,0,0,1,.49-.11,57.38,57.38,0,0,1,12.93,18.8.64.64,0,0,1-.52.88c-7.6.86-15,2-21.93,3.53l-3.66.82-1.17.29c-.81.19-1.63.38-2.44.59l-1.43.36-2.12.55-1.61.44-1.87.5-1.68.48-1.72.48-1.76.52-1.52.45-1.84.55-1.35.41-1.95.6a3.76,3.76,0,0,1-1.94.06,207.11,207.11,0,0,0-22.9-4.18l-.47,0c-1-.12-2-.22-3-.31h-.16c-1.35-.12-2.7-.21-4.06-.28l-1.17-.07-1.36,0-1.94-.05h-1c-.88,0-1.76,0-2.62,0h-.45c-1.08,0-2.14.08-3.2.15l-.63,0c-.69,0-1.81.14-2.49.21l-.85.09c-1,.11-2,.23-3,.38h0c-.17,0-.33.06-.5.09-1.37.21-2.73.44-4.08.72l-1.55.35c-1,.22-2,.43-2.91.68-.7.18-1.39.38-2.08.58s-1.51.41-2.25.63-1.53.49-2.29.73l-1.9.62c-.76.26-1.48.53-2.22.79s-1.23.44-1.83.67l-1.89.73-2,.8-1.27.53L78,117.75l-.25.11-1.94.84A.54.54,0,0,1,75.08,118.25Zm97.51.3a.31.31,0,0,1-.06.61H82.47a.3.3,0,0,1-.11-.58c2.39-.93,7-2.71,7.9-3l.33-.11c1.13-.39,2.29-.76,3.46-1.12l1.23-.37c.89-.26,1.8-.52,2.71-.76l1.44-.37c.91-.23,1.83-.44,2.76-.64l1.36-.3c1.37-.27,2.74-.52,4.13-.73s2.84-.36,4.27-.5l1.21-.1c1.19-.1,2.39-.17,3.61-.22l.83,0c1.46,0,3,0,4.45,0l1,0c1.55,0,3.12.11,4.74.22.62,0,1.24.1,1.86.15l.64,0c.88.08,1.79.18,2.71.28l.7.07,3.21.42c.47.06,1,.13,1.46.22s1.16.16,1.74.26l.22,0,2,.34,2.45.44c.81.15,1.61.3,2.42.47l2,.4c.47.09.93.18,1.43.3.75.15,1.53.32,2.31.5,1.54.33,3.09.68,4.62,1l.09,0,.19,0,1.58.37C160.65,116.24,168.1,117.7,172.59,118.55Zm-9.08-4.71c6.71-2,14.17-4.1,21.83-5.74A222.68,222.68,0,0,1,208,104.49a.64.64,0,0,1,.67.42,57.14,57.14,0,0,1,3,13.6.59.59,0,0,1-.59.65h-3.18a235.3,235.3,0,0,1-44.32-4.76A.29.29,0,0,1,163.51,113.84Zm44.35,7.73h3.41a.58.58,0,0,1,.58.56c0,.3,0,.59,0,.89a.6.6,0,0,1-.55.61c-1.41.12-5.14.45-6.9.64-7.39.76-14.51,1.74-21.26,2.94l-3,.55c-4,.75-7.91,1.74-11.73,2.69a131.11,131.11,0,0,1-18.92,3.74c-1.74.16-3.47.24-5.2.27-8.15.17-16.23-.94-23.9-2.14l-.21,0c-2-.32-4-.65-5.92-1l-2.09-.41c-1.3-.25-2.59-.5-3.86-.77-.77-.16-1.53-.34-2.29-.51l-3.47-.8-2.26-.57c-1.13-.29-2.24-.58-3.34-.89-.71-.2-1.43-.39-2.13-.6-1.13-.33-2.24-.67-3.35-1l-1.9-.6c-1-.32-5.57-2-8.16-3a.3.3,0,0,1,.11-.58ZM210.54,103a1.3,1.3,0,0,0-.18-.51,5,5,0,0,1-.23-.58l-.24-.6c-.16-.41-.33-.81-.5-1.21-.35-.79-.71-1.58-1.1-2.37q-1.14-2.34-2.49-4.58c-.89-1.5-1.86-3-2.88-4.36s-2.07-2.71-3.15-4c-.06-.07-.26-.37-.31-.44s-.38-.48-.28-.68c.19-.38,2.51,1.48,2.66,1.6,1.35,1,2.64,2.09,3.88,3.23s2.43,2.32,3.56,3.55,2.21,2.51,3.23,3.83,2,2.66,2.89,4.06c.31.47.61,1,.91,1.44a16.69,16.69,0,0,1,.87,1.47l.06.1A56.93,56.93,0,0,1,224,122.17a.6.6,0,0,1-.57.69l-1.27.06-1,0-1.6.08-.62,0-1.93.12-2.05.14a.62.62,0,0,1-.66-.6A59.5,59.5,0,0,0,210.54,103ZM184.69,81.43a1.41,1.41,0,0,0-1.6-.88,29.67,29.67,0,0,1-19.18-2.81.31.31,0,0,1,0-.55,29.9,29.9,0,0,1,26-.68,1.66,1.66,0,0,0,2.31-1,29.91,29.91,0,0,1,20-19.8,29.82,29.82,0,0,1-7.52,12.6,29.45,29.45,0,0,1-4.26,3.53,1.44,1.44,0,0,0-.48,1.74,1.42,1.42,0,0,0,1.58.84,30.41,30.41,0,0,1,5.47-.5,29.9,29.9,0,0,1,13.72,3.31.31.31,0,0,1,0,.55A29.78,29.78,0,0,1,207,81.08a29.32,29.32,0,0,1-3.86-.25c-2.94-.38-5.83-1.11-8.77-1.49a3,3,0,0,0-1.34.06,1.63,1.63,0,0,0-.91,1,29.87,29.87,0,0,1-19.71,18.88,30.18,30.18,0,0,1,11.72-16.1A1.41,1.41,0,0,0,184.69,81.43ZM163.93,199.75a88.72,88.72,0,0,1-78.66-47.12.58.58,0,0,1,.43-.85c1.39-.18,4.11-.54,4.65-.59l1.94-.2c.72-.07,1.45-.13,2.18-.18l1.94-.14,2.16-.1,2-.08,2.13,0c.66,0,1.32,0,2,0s1.4,0,2.09,0,1.33,0,2,.05,1.39.07,2.09.11l2,.1,2.44.21c.52.05,1,.08,1.56.14a216.35,216.35,0,0,1,24.55,4.43c4.65,1,9.45,2.08,14.21,2.94l2,.34.07,0,2,.31.25,0c2.14.33,4.45.62,6.89.85l.41,0c.7.06,1.4.12,2.11.16l.38,0c1.67.1,3.38.16,5.13.16h.37c.85,0,1.71,0,2.57,0l.47,0c1,0,1.94-.1,2.92-.18l.25,0c.88-.08,1.75-.18,2.63-.29l.65-.09c1-.14,1.93-.29,2.89-.48,8.1-1.59,15.88-4.47,23.4-7.26a168,168,0,0,1,20.62-6.64l.6-.13c1.16-.26,2.32-.51,3.49-.74.5-.1,1-.18,1.51-.27.88-.17,1.77-.33,2.65-.48l1.71-.26,2.47-.36,2.19-.26a.6.6,0,0,1,.62.81A89.47,89.47,0,0,1,163.93,199.75Zm84.35-60.15a1,1,0,0,1-.85.67l-1.68.2-1.65.19c-1,.13-1.94.27-2.9.42l-1.49.22c-1.14.19-2.28.39-3.42.61l-.94.17c-1.46.28-2.92.59-4.36.92a169,169,0,0,0-20.92,6.73c-7.43,2.75-15.12,5.6-23,7.15-11.4,2.24-23.18.62-31.06-.8-4.71-.86-9.5-1.91-14.12-2.93A218.46,218.46,0,0,0,117,148.68c-1.28-.14-2.57-.24-3.87-.33l-1.16-.08c-.93-.06-1.85-.1-2.77-.14l-1.08,0c-1.24,0-2.47-.06-3.71-.07h-.34l-1,0c-1.19,0-2.38,0-3.57.07-.61,0-1.21.06-1.82.09-1,0-2,.1-2.94.17l-1.93.15c-1,.09-1.92.18-2.88.29-.64.06-1.27.13-1.91.21l-3.52.48a1.09,1.09,0,0,1-1.15-.62,87.92,87.92,0,0,1-7.72-25.52.59.59,0,0,1,.81-.62L79.39,124c1,.39,2,.77,3,1.15l2.23.84c1,.35,2,.69,3,1l2.37.79c1,.33,2.09.64,3.15,1,.8.23,1.59.48,2.4.7,1.13.32,2.28.62,3.44.92l2.32.61c1.28.32,2.61.61,3.93.91l2,.47c1.61.34,3.25.67,4.91,1l1.32.27c2.15.39,4.33.77,6.56,1.12l1.8.28,1,.16,1.8.26,1.46.21,1.74.23,1.76.21c.5.06,1,.13,1.51.18,1,.11,2,.21,3.07.3l1.28.09c.71.06,1.43.1,2.15.14l1.3.06c.81,0,1.62.06,2.44.07l1,0h.3c.75,0,1.51,0,2.26,0l1.11,0c1.23-.05,2.47-.13,3.71-.25a132.46,132.46,0,0,0,19.29-3.8c3.78-.94,7.69-1.92,11.59-2.66.91-.18,1.84-.34,2.77-.51,6.84-1.21,14.08-2.21,21.63-3,2.07-.21,4.15-.41,6.26-.59l.9-.07,3.11-.24.65,0,1.14-.08h.06c.71,0,1.42-.12,2.13-.14l2.26-.11.51,0,3.9-.16c2-.06,4-.11,6-.13h1.77c1.5,0,3,0,4.51,0q1,0,2.07,0c1.7,0,3.39.07,5.09.14l1.07,0c1.46.06,2.92.14,4.38.22a.91.91,0,0,1,.83,1.06A87,87,0,0,1,248.28,139.6Zm4-17.15a.75.75,0,0,1-.79.65l-.55,0c-1.47-.09-2.94-.16-4.42-.22l-2.16-.08c-1.35,0-2.7-.08-4.06-.1l-2.2,0c-1.76,0-3.52,0-5.29,0l-1.87,0c-1.32,0-2.63,0-3.94.08a.59.59,0,0,1-.59-.5h0a.57.57,0,0,1,.57-.66h24.55a.76.76,0,0,1,.75.86Zm-.83-3.29H226.37a.6.6,0,0,1-.58-.48,59.75,59.75,0,0,0-5.13-14.47.59.59,0,0,1,.48-.86l2.6-.16,2.61-.14,1.72-.07,2.41-.1,1.93-.06,2.33-.07,2,0,2.35,0,2.11,0,2.45,0h4.73l2.21,0h1.57a.62.62,0,0,1,.61.57c.2,2.45.3,4.92.3,7.35s-.1,5-.31,7.39A1.31,1.31,0,0,1,251.49,119.16Z"/><text class="cls-1" transform="translate(28.84 271.37)">P<tspan class="cls-2" x="51.73" y="0">AS</tspan><tspan class="cls-3" x="154.5" y="0">E</tspan><tspan class="cls-4" x="205.84" y="0">O</tspan></text><text class="cls-5" transform="translate(30.44 305.72)">T<tspan class="cls-6" x="10.36" y="0">U </tspan><tspan class="cls-7" x="30.3" y="0">A</tspan><tspan class="cls-8" x="42.12" y="0">V</tspan><tspan class="cls-6" x="53.97" y="0">EN</tspan><tspan class="cls-9" x="79.06" y="0">T</tspan><tspan class="cls-10" x="89.42" y="0">URA EM</tspan><tspan class="cls-11" x="160.74" y="0">P</tspan><tspan class="cls-6" x="172.89" y="0">IEZA </tspan><tspan class="cls-12" x="222.31" y="0">A</tspan><tspan class="cls-6" x="234.45" y="0">QUI</tspan></text></g></svg>